<?xml version="1.0" encoding="UTF-8"?>
<svg version="1.1" xmlns="http://www.w3.org/2000/svg" width="3772" height="1858">
<path d="M0 0 C0.97522614 -0.00100708 1.95045227 -0.00201416 2.95523071 -0.00305176 C83.95702369 0.05295981 172.61571607 19.83227209 235.59375 73.54296875 C237.71709949 75.3913176 237.71709949 75.3913176 240.625 77.25 C240.63530746 76.53812027 240.64561493 75.82624054 240.65623474 75.0927887 C240.75404898 68.39717174 240.85654004 61.70164482 240.96433926 55.00618076 C241.0195988 51.5636426 241.07302347 48.121096 241.12231445 44.6784668 C241.17900801 40.72435474 241.24357495 36.77039056 241.30859375 32.81640625 C241.32530624 31.57476212 241.34201874 30.33311798 241.35923767 29.05384827 C241.37918289 27.91274094 241.39912811 26.77163361 241.41967773 25.59594727 C241.44299416 24.08037987 241.44299416 24.08037987 241.46678162 22.53419495 C241.625 20.25 241.625 20.25 242.625 19.25 C244.24097566 19.15290395 245.86122122 19.12628404 247.48011112 19.12695217 C248.53757103 19.12496112 249.59503094 19.12297007 250.68453509 19.12091869 C251.86057958 19.12383153 253.03662407 19.12674437 254.24830627 19.12974548 C255.48647706 19.12889106 256.72464785 19.12803663 258.00033897 19.12715632 C261.45277739 19.12578806 264.90515983 19.12893579 268.35759151 19.13393438 C272.07471842 19.13823538 275.79184347 19.13679271 279.50897217 19.1360321 C285.95435055 19.13550665 292.39971884 19.13865572 298.84509468 19.14426994 C308.16413349 19.15238199 317.48316741 19.15499986 326.80220937 19.15625793 C341.9201443 19.15844892 357.03807385 19.16511026 372.15600586 19.17456055 C386.84545871 19.18373346 401.5349101 19.19081488 416.22436523 19.19506836 C417.12916217 19.19533108 418.03395911 19.19559381 418.96617413 19.19586449 C423.50507708 19.19716949 428.04398004 19.19843321 432.582883 19.19967639 C470.26359247 19.21005046 507.94429582 19.22767003 545.625 19.25 C545.6745327 107.99205696 545.72170519 196.73411609 545.75202942 295.77043152 C545.75244777 297.14965666 545.75286613 298.52888181 545.75328448 299.90810695 C545.76205414 328.86379738 545.77020411 357.81948795 545.77763903 386.77517875 C545.78137497 401.32241268 545.78522988 415.86964658 545.78919732 430.41688045 C545.78979508 432.61115981 545.79038943 434.80543917 545.79098364 436.99971852 C545.8001544 470.75463656 545.81186343 504.50955134 545.83099365 538.26446533 C545.83140435 538.98921821 545.83181505 539.7139711 545.83223819 540.46068619 C545.8388746 552.14448711 545.8457257 563.8282879 545.85260532 575.51208868 C545.872438 609.1998774 545.89066095 642.88766359 545.89841938 676.57545757 C545.89857999 677.26947135 545.89874059 677.96348514 545.89890606 678.67852964 C545.90240485 693.920558 545.90508872 709.1625864 545.90700295 724.40461504 C545.90778772 730.53920532 545.90868959 736.67379559 545.90963173 742.80838585 C545.90973201 743.47975429 545.90983229 744.15112273 545.90993561 744.84283568 C545.9133162 767.074372 545.9271148 789.3058884 545.9454961 811.53741689 C545.96321411 833.23644469 545.9698899 854.93545408 545.96550413 876.63448886 C545.96323227 889.50684351 545.96921679 902.3791305 545.98739263 915.25147287 C545.99873271 923.87649195 545.99892821 932.50146729 545.99049544 941.12648952 C545.9860133 946.02403966 545.98596236 950.92146286 545.99964955 955.81899879 C546.25497795 1053.06443583 523.33096297 1150.12909563 464.625 1229.25 C464.1923584 1229.83426758 463.7597168 1230.41853516 463.31396484 1231.02050781 C451.10423517 1247.40959559 437.46045962 1262.47544881 423.07754517 1276.97268677 C421.66773377 1278.3944053 420.26190321 1279.82006788 418.85620117 1281.24584961 C412.75682212 1287.35286175 406.37029337 1292.87251363 399.625 1298.25 C398.59754096 1299.11349653 397.57413236 1299.98189014 396.55859375 1300.859375 C326.09239791 1361.29047879 232.88327971 1391.56527908 65.1875 1406.4375 C64.12840424 1406.43689575 63.06930847 1406.4362915 61.9781189 1406.43566895 C6.70269799 1406.35092477 -48.5202831 1401.00102684 -102.375 1388.25 C-103.97335693 1387.8780249 -103.97335693 1387.8780249 -105.60400391 1387.49853516 C-176.1000746 1370.89554286 -245.56927392 1339.52538629 -299.23828125 1290.203125 C-301.14412347 1288.46103887 -303.09003302 1286.79045187 -305.0625 1285.125 C-314.46432266 1276.93198311 -323.41144229 1267.84419096 -331.375 1258.25 C-332.08140625 1257.43273438 -332.7878125 1256.61546875 -333.515625 1255.7734375 C-351.95976661 1234.17594265 -366.7260364 1210.62535009 -379.375 1185.25 C-379.72401367 1184.55455078 -380.07302734 1183.85910156 -380.43261719 1183.14257812 C-392.03795547 1159.83488724 -400.39124652 1134.78801866 -405.9375 1109.375 C-406.10612549 1108.61477539 -406.27475098 1107.85455078 -406.44848633 1107.07128906 C-407.25248611 1103.1000865 -407.29166887 1100.16702092 -406.375 1096.25 C-386.83377219 1091.76891813 -367.29207854 1087.28987021 -347.75 1082.8125 C-346.64710805 1082.55981031 -346.64710805 1082.55981031 -345.52193546 1082.30201578 C-297.72318461 1071.35078404 -249.91551856 1060.4398032 -202.09399414 1049.58837891 C-198.80743132 1048.8425857 -195.52086972 1048.09678713 -192.23431206 1047.35097122 C-190.1178697 1046.87069569 -188.00142108 1046.39044776 -185.8849659 1045.91022873 C-173.3232617 1043.05972631 -160.76373891 1040.20003579 -148.20876312 1037.32003593 C-146.05120674 1036.82514166 -143.89356739 1036.33061077 -141.73590088 1035.8361969 C-135.58845569 1034.42732064 -129.44169171 1033.01559813 -123.29638672 1031.59741211 C-121.28746511 1031.1364243 -119.27851566 1030.67555781 -117.26953125 1030.21484375 C-116.38808945 1030.01000366 -115.50664764 1029.80516357 -114.59849548 1029.59411621 C-111.46330273 1028.87775628 -108.6024738 1028.25 -105.375 1028.25 C-105.08367188 1029.44753906 -104.79234375 1030.64507813 -104.4921875 1031.87890625 C-99.5052118 1051.88462907 -92.33376982 1068.97725907 -79.375 1085.25 C-78.79878906 1085.9821875 -78.22257812 1086.714375 -77.62890625 1087.46875 C-53.45964227 1116.68052229 -11.96291508 1128.3608811 24.18359375 1131.93359375 C66.75982336 1135.7371532 111.56404272 1132.86568132 150.625 1114.25 C151.6454541 1113.76660156 151.6454541 1113.76660156 152.68652344 1113.2734375 C162.23735988 1108.66882062 170.50326983 1103.04403993 178.625 1096.25 C179.58277344 1095.45722656 180.54054688 1094.66445312 181.52734375 1093.84765625 C196.99694254 1080.46092069 208.03921342 1062.51113734 214.625 1043.25 C214.85171387 1042.58774414 215.07842773 1041.92548828 215.31201172 1041.24316406 C222.91884445 1018.47153204 223.78301871 995.34267428 223.72265625 971.54296875 C223.72078774 969.36436496 223.71936589 967.18576074 223.71836853 965.00715637 C223.71457741 959.3141867 223.70477677 953.62124315 223.69366455 947.92828369 C223.68337665 942.10258334 223.6788552 936.27687872 223.67382812 930.45117188 C223.66315097 919.05076987 223.64611617 907.65038712 223.625 896.25 C222.59326157 896.94096771 221.56152313 897.63193542 220.4985199 898.34384155 C219.132429 899.25710995 217.76630266 900.17032534 216.40014648 901.08349609 C215.72160362 901.53812729 215.04306076 901.99275848 214.34395599 902.46116638 C209.88308859 905.44095428 205.39798687 908.30264852 200.6875 910.875 C200.02967529 911.23851562 199.37185059 911.60203125 198.6940918 911.9765625 C138.16958736 945.1351544 69.98624295 958.4590248 1.375 958.5 C-0.16318893 958.50101212 -0.16318893 958.50101212 -1.73245239 958.50204468 C-49.64449649 958.45241796 -96.57678086 951.53399826 -142.375 937.25 C-143.25285156 936.98106934 -144.13070312 936.71213867 -145.03515625 936.43505859 C-201.43589229 919.0490851 -252.63211531 887.87928242 -296.109375 848.2890625 C-299.00903708 845.67936663 -301.98367432 843.16211613 -304.9765625 840.66015625 C-306.375 839.25 -306.375 839.25 -306.375 837.25 C-307.035 837.25 -307.695 837.25 -308.375 837.25 C-309.78515625 835.81640625 -309.78515625 835.81640625 -311.4375 833.8125 C-314.08083144 830.69304054 -316.81558145 827.78455407 -319.75 824.9375 C-323.84480823 820.89119204 -327.48074983 816.60276274 -331.07421875 812.109375 C-333.37204973 809.25366655 -335.74319499 806.47332687 -338.125 803.6875 C-348.96374023 790.68101172 -358.41783755 776.59834033 -367.375 762.25 C-367.75575684 761.6415625 -368.13651367 761.033125 -368.52880859 760.40625 C-413.53394618 688.04893756 -436.24151121 603.88962028 -427.23632812 342.98193359 C-407.25039265 257.56182332 -366.16233468 180.14985116 -304.1875 117.9375 C-303.34388916 117.08921631 -302.50027832 116.24093262 -301.63110352 115.36694336 C-296.70621204 110.45462402 -291.66550292 105.7644569 -286.375 101.25 C-285.39917969 100.39277344 -284.42335938 99.53554688 -283.41796875 98.65234375 C-262.64702457 80.722842 -239.6717225 65.83742746 -215.71435547 52.54882812 C-213.66901525 51.41323953 -211.63262281 50.26338694 -209.59765625 49.109375 C-158.01804673 20.56362935 -97.02890492 5.23739121 -38.375 1.25 C-37.17907227 1.16459961 -35.98314453 1.07919922 -34.75097656 0.99121094 C-23.1693621 0.20736549 -11.60597478 0.00841901 0 0 Z M-77.20703125 345.83984375 C-113.56802141 386.26278236 -124.44833564 441.42501318 -122.1875 494.375 C-121.11427195 513.22245994 -118.08540488 532.24237772 -112.375 550.25 C-112.13442871 551.01151367 -111.89385742 551.77302734 -111.64599609 552.55761719 C-103.75253863 576.8928166 -91.06326196 597.90661723 -73.375 616.25 C-72.65957031 617.02859375 -71.94414062 617.8071875 -71.20703125 618.609375 C-61.0613347 629.34515897 -48.40914246 637.46434434 -35.375 644.25 C-34.74964355 644.5809668 -34.12428711 644.91193359 -33.47998047 645.25292969 C12.1405114 669.09559735 71.04806185 670.32158386 119.625 655.25 C160.19902591 641.5813686 193.04855599 613.94353402 212.44775391 575.69335938 C219.25920829 561.55627197 223.77725075 546.65323284 226.625 531.25 C226.87056641 529.95497559 226.87056641 529.95497559 227.12109375 528.63378906 C234.97342635 484.48875393 233.67746724 429.42348089 214.625 388.25 C214.32335938 387.59596191 214.02171875 386.94192383 213.7109375 386.26806641 C196.27395589 348.86893054 165.39756493 320.50964904 126.93676758 305.76196289 C58.65023996 280.92594756 -25.6376498 292.57966291 -77.20703125 345.83984375 Z " fill="#ffffff" transform="translate(3226.375,450.75)"/>
<path d="M0 0 C1.45240082 0.00090637 1.45240082 0.00090637 2.93414307 0.00183105 C18.60227136 0.0282806 34.10106514 0.4556739 49.6875 2.1875 C50.863125 2.31640625 52.03875 2.4453125 53.25 2.578125 C119.32723813 10.07428227 185.35016885 31.28255481 237.21533203 74.15454102 C238.83756941 75.48856933 240.47192161 76.8080279 242.11914062 78.11108398 C248.92473753 83.5367707 255.15328599 89.34175821 261.27685547 95.51611328 C262.81130216 97.06129378 264.35618002 98.59546009 265.90234375 100.12890625 C272.27155999 106.48878653 278.13135582 113.09262416 283.6875 120.1875 C284.4933252 121.20432861 284.4933252 121.20432861 285.31542969 122.24169922 C325.23825271 173.09034519 346.38052555 235.04120252 354.875 298.5625 C355.10751465 300.27747681 355.10751465 300.27747681 355.34472656 302.02709961 C358.11430791 324.01630838 358.98729149 346.07588869 358.92800903 368.21905518 C358.92888414 370.70572699 358.93064069 373.19239862 358.93318737 375.67906928 C358.93668986 381.0255264 358.93414612 386.37192627 358.92591095 391.71837425 C358.91370069 399.66798872 358.91325215 407.61757552 358.91499493 415.56719766 C358.91760606 428.94810953 358.91100388 442.32900146 358.89896011 455.70990753 C358.88708393 468.93884633 358.87941976 482.1677768 358.87725449 495.39672089 C358.87711701 496.2224452 358.87697953 497.04816952 358.87683788 497.89891579 C358.87616112 502.09317175 358.87555839 506.28742772 358.87498413 510.4816837 C358.87079486 540.10970232 358.85735257 569.73771012 358.83837891 599.36572266 C358.81997953 628.13037051 358.8058273 656.8950154 358.79736328 685.65966797 C358.79710023 686.54793662 358.79683718 687.43620526 358.79656615 688.35139114 C358.79392888 697.27259152 358.79137729 706.19379192 358.78888843 715.11499234 C358.78381742 733.28489333 358.77817492 751.45479412 358.77218628 769.62469482 C358.7719117 770.45992759 358.77163712 771.29516036 358.77135422 772.15570321 C358.75298505 827.83297334 358.7212566 883.51023734 358.6875 939.1875 C317.81102028 939.21036471 276.9345414 939.22799738 236.05805657 939.23856533 C231.23751622 939.23981611 226.41697588 939.24111042 221.59643555 939.24243164 C220.63671052 939.24269395 219.67698548 939.24295626 218.68817788 939.24322652 C203.12715557 939.24758357 187.56613695 939.25547131 172.00511683 939.2646528 C156.05046715 939.27398836 140.0958194 939.2795554 124.1411671 939.28158849 C114.28803352 939.28296393 104.43491033 939.28731559 94.58177995 939.29541647 C87.83468493 939.30068273 81.08759532 939.30230457 74.3404984 939.30100138 C70.44172937 939.30035781 66.54297855 939.30137762 62.64421272 939.30670547 C58.42751499 939.31242606 54.21085657 939.31050128 49.99415588 939.30775452 C48.74807432 939.31066736 47.50199276 939.3135802 46.21815115 939.31658131 C45.09799012 939.31459026 43.9778291 939.31259921 42.82372379 939.31054783 C41.84898171 939.31092755 40.87423962 939.31130727 39.86995989 939.3116985 C37.6875 939.1875 37.6875 939.1875 36.6875 938.1875 C36.58617931 935.46308882 36.55098055 932.76389605 36.55721474 930.03890038 C36.55429959 928.73563933 36.55429959 928.73563933 36.55132556 927.40604979 C36.54595569 924.45626317 36.54777533 921.50652261 36.54946899 918.55673218 C36.54705338 916.43561393 36.54419188 914.31449615 36.54091966 912.19337904 C36.53313171 906.33402491 36.53154539 900.47468246 36.53086853 894.61532378 C36.5290348 888.30672709 36.52143094 881.99813733 36.51438904 875.68954468 C36.50359219 865.45625684 36.49542505 855.22297141 36.48950893 844.98967972 C36.47947895 827.69673849 36.46022522 810.40381704 36.43796654 793.11088766 C36.42943461 786.45706652 36.42116849 779.80324503 36.41286278 773.1494236 C36.41147526 772.04034129 36.41147526 772.04034129 36.41005972 770.90885328 C36.38805103 753.29324144 36.36827197 735.67762739 36.34960938 718.06201172 C36.34837986 716.90545446 36.34837986 716.90545446 36.3471255 715.72553241 C36.32806714 697.76156295 36.31110333 679.79759359 36.29876709 661.83361816 C36.29823742 661.0625847 36.29770775 660.29155123 36.29716204 659.49715312 C36.29291103 653.28345696 36.28873444 647.06976075 36.28457724 640.85606453 C36.26734659 615.18974399 36.24008678 589.52345027 36.20141686 563.85715276 C36.19595562 560.22510787 36.19062252 556.59306281 36.18537521 552.96101761 C36.18382364 551.88885553 36.18382364 551.88885553 36.18224073 550.79503361 C36.16596708 539.32827677 36.16039004 527.86153884 36.15907755 516.39477154 C36.15756643 504.84400969 36.14508619 493.29330727 36.12232114 481.74256663 C36.11034509 475.49376081 36.10310518 469.24504772 36.10903358 462.99623108 C36.11437792 457.25991682 36.10568946 451.52379073 36.08647721 445.78750773 C36.08194945 443.7272546 36.08230533 441.66698274 36.08842559 439.60673372 C36.18442485 404.0809811 30.30233691 364.86849255 6.21875 337.10546875 C4.6875 335.1875 4.6875 335.1875 3.6875 332.1875 C3.0275 332.1875 2.3675 332.1875 1.6875 332.1875 C0.56248794 331.06248794 -0.55971898 329.93459783 -1.671875 328.796875 C-24.10361235 306.79240884 -56.00094715 300.90202288 -86.3125 301.1875 C-116.24173248 302.23069388 -143.80343078 311.00946707 -166.3125 331.1875 C-167.00601562 331.79851562 -167.69953125 332.40953125 -168.4140625 333.0390625 C-186.72529336 350.18304359 -197.00427449 375.12916873 -202.125 399.1875 C-202.31989014 400.09878662 -202.51478027 401.01007324 -202.71557617 401.94897461 C-205.98155209 418.46309611 -206.60932499 435.01240815 -206.5909729 451.79594421 C-206.59598785 453.9118678 -206.60186711 456.02778948 -206.60852563 458.14370853 C-206.62419458 463.90419195 -206.62774902 469.66462643 -206.62917423 475.42512858 C-206.63289139 481.65731395 -206.64805821 487.88947317 -206.66178894 494.12164307 C-206.68399327 504.90146008 -206.69911662 515.68126209 -206.70915604 526.46109581 C-206.71970683 537.75767697 -206.73437003 549.05424068 -206.75443649 560.3508091 C-206.75568536 561.05515356 -206.75693423 561.75949801 -206.75822094 562.48518624 C-206.76458535 566.06269899 -206.77102237 569.64021161 -206.77748732 573.21772418 C-206.82305961 598.50817747 -206.85954582 623.79863642 -206.890625 649.08911133 C-206.92082494 673.64706248 -206.9551801 698.20500212 -206.99511719 722.76293945 C-206.99634819 723.52091492 -206.99757919 724.27889038 -206.9988475 725.05983479 C-207.01121515 732.6722527 -207.0236668 740.28467048 -207.03617998 747.89708815 C-207.06166522 763.40224195 -207.08659002 778.90739663 -207.11117554 794.41255188 C-207.11230645 795.12533723 -207.11343736 795.83812259 -207.11460253 796.57250749 C-207.18996288 844.11082505 -207.25222116 891.64916118 -207.3125 939.1875 C-248.18897972 939.21036471 -289.0654586 939.22799738 -329.94194343 939.23856533 C-334.76248378 939.23981611 -339.58302412 939.24111042 -344.40356445 939.24243164 C-345.36328948 939.24269395 -346.32301452 939.24295626 -347.31182212 939.24322652 C-362.87284443 939.24758357 -378.43386305 939.25547131 -393.99488317 939.2646528 C-409.94953285 939.27398836 -425.9041806 939.2795554 -441.8588329 939.28158849 C-451.71196648 939.28296393 -461.56508967 939.28731559 -471.41822005 939.29541647 C-478.16531507 939.30068273 -484.91240468 939.30230457 -491.6595016 939.30100138 C-495.55827063 939.30035781 -499.45702145 939.30137762 -503.35578728 939.30670547 C-507.57248501 939.31242606 -511.78914343 939.31050128 -516.00584412 939.30775452 C-517.25192568 939.31066736 -518.49800724 939.3135802 -519.78184885 939.31658131 C-520.90200988 939.31459026 -522.0221709 939.31259921 -523.17627621 939.31054783 C-524.15101829 939.31092755 -525.12576038 939.31130727 -526.13004011 939.3116985 C-528.3125 939.1875 -528.3125 939.1875 -529.3125 938.1875 C-529.41112531 936.18639629 -529.43773061 934.18174193 -529.43784916 932.1782093 C-529.44035268 930.86034125 -529.4428562 929.54247319 -529.44543558 928.18466973 C-529.44315825 926.69994611 -529.44079003 925.21522262 -529.43834114 923.73049927 C-529.4393829 922.16405318 -529.44086312 920.59760733 -529.44274551 919.03116202 C-529.446672 914.68651493 -529.44429275 910.34188979 -529.44096755 905.99724302 C-529.43844734 901.28582507 -529.44168417 896.57441069 -529.44421089 891.86299324 C-529.44783602 883.59236828 -529.4477048 875.32174984 -529.44516373 867.05112457 C-529.44139537 854.75281205 -529.4433076 842.45450508 -529.44637203 830.1561926 C-529.45164969 808.1968018 -529.45117665 786.2374139 -529.44829312 764.27802283 C-529.44578201 745.06150791 -529.44511878 725.84499405 -529.44631577 706.628479 C-529.44639215 705.35602652 -529.44646854 704.08357405 -529.44654724 702.7725624 C-529.44685855 697.60784732 -529.44717695 692.44313225 -529.447507 687.27841718 C-529.44978437 651.21233445 -529.45018102 615.14625226 -529.44644356 579.08016968 C-529.44637331 578.39994708 -529.44630306 577.71972448 -529.44623068 577.01888907 C-529.44508564 565.97153038 -529.44386622 554.92417171 -529.44264051 543.87681303 C-529.43778393 500.05784829 -529.43800934 456.2388866 -529.44287109 412.41992188 C-529.44409222 401.37822469 -529.44530324 390.33652751 -529.44644356 379.29483032 C-529.44651401 378.61501327 -529.44658445 377.93519621 -529.44665704 377.23477864 C-529.45043149 340.56090937 -529.44960247 303.8870404 -529.44725883 267.21317101 C-529.44693809 262.057621 -529.44662525 256.902071 -529.44631577 251.746521 C-529.44623669 250.47700278 -529.44615761 249.20748456 -529.44607614 247.89949609 C-529.44493651 228.69050427 -529.44627295 209.48151363 -529.44879532 190.27252197 C-529.4516477 168.44088666 -529.45095448 146.60925472 -529.44551457 124.77761984 C-529.44256735 112.54467446 -529.44240229 100.31173637 -529.44616075 88.07879118 C-529.44839103 79.92341199 -529.44702967 71.76803868 -529.44265598 63.61266037 C-529.44026075 58.95551315 -529.4394976 54.29838048 -529.44306196 49.64123368 C-529.44626435 45.41426839 -529.44496082 41.1873307 -529.4398813 36.96036747 C-529.43886443 35.43134619 -529.43956528 33.90232268 -529.44208724 32.37330315 C-529.44524518 30.3144676 -529.44176028 28.25562495 -529.43784916 26.1967907 C-529.4377814 25.05164871 -529.43771365 23.90650673 -529.43764383 22.72666347 C-529.3125 20.1875 -529.3125 20.1875 -528.3125 19.1875 C-526.69652434 19.09040395 -525.07627878 19.06378404 -523.45738888 19.06445217 C-522.39992897 19.06246112 -521.34246906 19.06047007 -520.25296491 19.05841869 C-519.07692042 19.06133153 -517.90087593 19.06424437 -516.68919373 19.06724548 C-515.45102294 19.06639106 -514.21285215 19.06553663 -512.93716103 19.06465632 C-509.48472261 19.06328806 -506.03234017 19.06643579 -502.57990849 19.07143438 C-498.86278158 19.07573538 -495.14565653 19.07429271 -491.42852783 19.0735321 C-484.98314945 19.07300665 -478.53778116 19.07615572 -472.09240532 19.08176994 C-462.77336651 19.08988199 -453.45433259 19.09249986 -444.13529063 19.09375793 C-429.0173557 19.09594892 -413.89942615 19.10261026 -398.78149414 19.11206055 C-384.09204129 19.12123346 -369.4025899 19.12831488 -354.71313477 19.13256836 C-353.80833783 19.13283108 -352.90354089 19.13309381 -351.97132587 19.13336449 C-347.43242292 19.13466949 -342.89351996 19.13593321 -338.354617 19.13717639 C-300.67390655 19.14755046 -262.99320606 19.16598954 -225.3125 19.1875 C-224.9825 39.6475 -224.6525 60.1075 -224.3125 81.1875 C-220.3525 76.8975 -216.3925 72.6075 -212.3125 68.1875 C-200.29230759 56.63562677 -186.79091835 47.37015581 -172.3125 39.1875 C-171.68214844 38.82446777 -171.05179688 38.46143555 -170.40234375 38.08740234 C-130.29130685 15.12484662 -83.01531147 4.78895194 -37.3125 1.1875 C-35.64779663 1.05613647 -35.64779663 1.05613647 -33.94946289 0.92211914 C-22.63194106 0.11960526 -11.34314931 -0.01313963 0 0 Z " fill="#ffffff" transform="translate(1826.3125,450.8125)"/>
<path d="M0 0 C105.93 0 211.86 0 321 0 C321 72.79904163 320.99510564 145.5807181 320.5 218.375 C320.335 243.66125 320.17 268.9475 320 295 C416.525 295.495 416.525 295.495 515 296 C515 387.08 515 478.16 515 572 C449.99 572 384.98 572 318 572 C318 583.22 318 594.44 318 606 C317.89712146 623.76323782 317.89712146 623.76323782 317.84757996 629.83810425 C317.83664652 631.19976659 317.82573943 632.56142915 317.81485558 633.92309189 C317.80932914 634.61027786 317.80380271 635.29746383 317.79810882 636.00547361 C317.76879048 639.6982307 317.74120778 643.39100071 317.71357727 647.08377075 C317.7078865 647.8436251 317.70219573 648.60347945 317.69633251 649.38635969 C317.68469934 650.9399339 317.67307117 652.49350814 317.66144788 654.04708242 C317.64374534 656.40629888 317.62589208 658.76551414 317.60799885 661.12472916 C317.07689877 730.1087774 317.07689877 730.1087774 316.82275391 799.09420776 C316.81695434 802.78590688 316.80660762 806.47754542 316.79199219 810.16921997 C316.77556132 814.40874571 316.76907422 818.64816573 316.77080345 822.88772202 C316.76998021 824.38349854 316.76596211 825.87927818 316.75811195 827.37503433 C316.59655413 860.27700109 326.34974483 889.69105656 349.375 913.6875 C363.93705353 927.82782455 383.13231564 936.49213325 402.5 941.75 C403.2221167 941.94875732 403.9442334 942.14751465 404.68823242 942.35229492 C420.42433933 946.39327868 436.09150153 946.28262856 452.22827148 946.20581055 C456.13336895 946.18775034 460.03822475 946.18530029 463.94335938 946.18554688 C466.51823112 946.18062168 469.09310132 946.17478906 471.66796875 946.16796875 C472.7888237 946.16685593 473.90967865 946.1657431 475.0644989 946.16459656 C488.39719386 946.09067675 501.6557848 945.47657911 515 945 C515 1038.06 515 1131.12 515 1227 C476.76146972 1231.63497337 476.76146972 1231.63497337 463.15917969 1232.52856445 C460.72767483 1232.68897281 458.29754449 1232.8641348 455.8671875 1233.04101562 C429.68593068 1234.88893969 403.47915162 1235.18856294 377.24487305 1235.18530273 C373.87860745 1235.18522148 370.51247801 1235.19218668 367.14624023 1235.20581055 C338.54131425 1235.31945911 310.08128141 1234.64458955 281.6875 1230.8125 C280.89013428 1230.70740112 280.09276855 1230.60230225 279.27124023 1230.49401855 C230.5416967 1224.02268552 183.66782174 1210.9084251 140 1188 C139.35885254 1187.66419922 138.71770508 1187.32839844 138.05712891 1186.98242188 C115.0944876 1174.82335434 94.70280456 1158.94815206 76 1141 C75.10539063 1140.14664062 74.21078125 1139.29328125 73.2890625 1138.4140625 C67.36767711 1132.63843429 62.10430343 1126.50274273 57 1120 C55.77796875 1118.46859375 55.77796875 1118.46859375 54.53125 1116.90625 C48.48448745 1109.25949303 43.07373251 1101.32129785 38 1093 C37.35546875 1091.948125 36.7109375 1090.89625 36.046875 1089.8125 C16.84531768 1057.34157379 4.96532434 1021.15988093 -1 984 C-1.13889648 983.15598633 -1.27779297 982.31197266 -1.42089844 981.44238281 C-5.40472563 956.57392744 -6.15616794 931.26896362 -6.078125 906.125 C-6.07497876 904.15311713 -6.07201312 902.18123396 -6.06919861 900.20935059 C-6.05554317 892.80619836 -6.0285843 885.4031073 -6 878 C-5.99709599 877.23973133 -5.99419198 876.47946266 -5.99119997 875.69615555 C-5.88289991 847.46009538 -5.74291314 819.22419832 -5.59614182 790.98831558 C-5.56791587 785.55553423 -5.54009332 780.12275089 -5.51238817 774.68996686 C-5.07127482 688.24584053 -5.07127482 688.24584053 -4.7109375 645.51953125 C-4.70030903 644.25694677 -4.68968056 642.9943623 -4.67873001 641.69351768 C-4.48043377 618.46206735 -4.23465775 595.23111685 -4 572 C-58.78 572 -113.56 572 -170 572 C-170.04033135 503.02891184 -170.04033135 503.02891184 -170.04882812 474.29492188 C-170.05078614 467.71736651 -170.05280666 461.13981117 -170.05493164 454.56225586 C-170.05519539 453.73781249 -170.05545914 452.91336912 -170.05573088 452.06394261 C-170.0600858 438.73618132 -170.0679727 425.40842433 -170.0771528 412.0806656 C-170.08648872 398.41316105 -170.09205548 384.74565877 -170.09408849 371.07815117 C-170.09546385 362.63765223 -170.09981511 354.19716543 -170.10791647 345.75667023 C-170.11318317 339.97671505 -170.11480447 334.19676619 -170.11350138 328.41680879 C-170.11285788 325.07700737 -170.11441525 321.73724444 -170.11920547 318.39744377 C-170.12413526 314.78505116 -170.12300094 311.17271168 -170.12025452 307.56031799 C-170.12316736 306.49322005 -170.1260802 305.42612211 -170.12908131 304.32668787 C-170.12709026 303.36676304 -170.12509921 302.40683821 -170.12304783 301.41782475 C-170.12342755 300.58281974 -170.12380727 299.74781473 -170.1241985 298.88750654 C-170 297 -170 297 -169 296 C-167.2651522 295.8924024 -165.52598532 295.8537407 -163.7878418 295.84228516 C-162.1129493 295.82689194 -162.1129493 295.82689194 -160.40422058 295.81118774 C-159.18156998 295.80388641 -157.95891937 295.79658508 -156.69921875 295.7890625 C-154.10481199 295.76093935 -151.51041105 295.73227472 -148.91601562 295.703125 C-144.8311713 295.66112927 -140.74635722 295.62438947 -136.66137695 295.59863281 C-98.63910882 295.32806149 -60.08646302 290.22219013 -32 262 C0.18418738 227.70901877 -0.7203972 180.32049209 -0.59480286 136.31048584 C-0.58065253 131.97420275 -0.55607361 127.63800013 -0.5324707 123.30175781 C-0.46974367 110.70121868 -0.42332292 98.10060261 -0.375 85.5 C-0.25125 57.285 -0.1275 29.07 0 0 Z " fill="#ffffff" transform="translate(626,174)"/>
<path d="M0 0 C105.93 0 211.86 0 321 0 C322.80717848 1.80717848 322.12520517 4.57570278 322.12534916 7.0092907 C322.12785268 8.32715875 322.1303562 9.64502681 322.13293558 11.00283027 C322.13065825 12.48755389 322.12829003 13.97227738 322.12584114 15.45700073 C322.1268829 17.02344682 322.12836312 18.58989267 322.13024551 20.15633798 C322.134172 24.50098507 322.13179275 28.84561021 322.12846755 33.19025698 C322.12594734 37.90167493 322.12918417 42.61308931 322.13171089 47.32450676 C322.13533602 55.59513172 322.1352048 63.86575016 322.13266373 72.13637543 C322.12889537 84.43468795 322.1308076 96.73299492 322.13387203 109.0313074 C322.13914969 130.9906982 322.13867665 152.9500861 322.13579312 174.90947717 C322.13328201 194.12599209 322.13261878 213.34250595 322.13381577 232.559021 C322.13393034 234.46769972 322.13393034 234.46769972 322.13404724 236.4149376 C322.13435855 241.57965268 322.13467695 246.74436775 322.135007 251.90908282 C322.13728437 287.97516555 322.13768102 324.04124774 322.13394356 360.10733032 C322.13383818 361.12766422 322.13383818 361.12766422 322.13373068 362.16861093 C322.13258564 373.21596962 322.13136622 384.26332829 322.13014051 395.31068697 C322.12528393 439.12965171 322.12550934 482.9486134 322.13037109 526.76757812 C322.13159222 537.80927531 322.13280324 548.85097249 322.13394356 559.89266968 C322.13401401 560.57248673 322.13408445 561.25230379 322.13415704 561.95272136 C322.13793149 598.62659063 322.13710247 635.3004596 322.13475883 671.97432899 C322.13443809 677.129879 322.13412525 682.285429 322.13381577 687.440979 C322.13373669 688.71049722 322.13365761 689.98001544 322.13357614 691.28800391 C322.13243651 710.49699573 322.13377295 729.70598637 322.13629532 748.91497803 C322.1391477 770.74661334 322.13845448 792.57824528 322.13301457 814.40988016 C322.13006735 826.64282554 322.12990229 838.87576363 322.13366075 851.10870882 C322.13589103 859.26408801 322.13452967 867.41946132 322.13015598 875.57483963 C322.12776075 880.23198685 322.1269976 884.88911952 322.13056196 889.54626632 C322.13376435 893.77323161 322.13246082 898.0001693 322.1273813 902.22713253 C322.12636443 903.75615381 322.12706528 905.28517732 322.12958724 906.81419685 C322.13274518 908.8730324 322.12926028 910.93187505 322.12534916 912.9907093 C322.12524753 914.70842228 322.12524753 914.70842228 322.12514383 916.46083653 C322 919 322 919 321 920 C215.07 920 109.14 920 0 920 C0 616.4 0 312.8 0 0 Z " fill="#ffffff" transform="translate(2345,470)"/>
<path d="M0 0 C105.93 0 211.86 0 321 0 C322.80717848 1.80717848 322.12520517 4.57570278 322.12534916 7.0092907 C322.12785268 8.32715875 322.1303562 9.64502681 322.13293558 11.00283027 C322.13065825 12.48755389 322.12829003 13.97227738 322.12584114 15.45700073 C322.1268829 17.02344682 322.12836312 18.58989267 322.13024551 20.15633798 C322.134172 24.50098507 322.13179275 28.84561021 322.12846755 33.19025698 C322.12594734 37.90167493 322.12918417 42.61308931 322.13171089 47.32450676 C322.13533602 55.59513172 322.1352048 63.86575016 322.13266373 72.13637543 C322.12889537 84.43468795 322.1308076 96.73299492 322.13387203 109.0313074 C322.13914969 130.9906982 322.13867665 152.9500861 322.13579312 174.90947717 C322.13328201 194.12599209 322.13261878 213.34250595 322.13381577 232.559021 C322.13393034 234.46769972 322.13393034 234.46769972 322.13404724 236.4149376 C322.13435855 241.57965268 322.13467695 246.74436775 322.135007 251.90908282 C322.13728437 287.97516555 322.13768102 324.04124774 322.13394356 360.10733032 C322.13383818 361.12766422 322.13383818 361.12766422 322.13373068 362.16861093 C322.13258564 373.21596962 322.13136622 384.26332829 322.13014051 395.31068697 C322.12528393 439.12965171 322.12550934 482.9486134 322.13037109 526.76757812 C322.13159222 537.80927531 322.13280324 548.85097249 322.13394356 559.89266968 C322.13401401 560.57248673 322.13408445 561.25230379 322.13415704 561.95272136 C322.13793149 598.62659063 322.13710247 635.3004596 322.13475883 671.97432899 C322.13443809 677.129879 322.13412525 682.285429 322.13381577 687.440979 C322.13373669 688.71049722 322.13365761 689.98001544 322.13357614 691.28800391 C322.13243651 710.49699573 322.13377295 729.70598637 322.13629532 748.91497803 C322.1391477 770.74661334 322.13845448 792.57824528 322.13301457 814.40988016 C322.13006735 826.64282554 322.12990229 838.87576363 322.13366075 851.10870882 C322.13589103 859.26408801 322.13452967 867.41946132 322.13015598 875.57483963 C322.12776075 880.23198685 322.1269976 884.88911952 322.13056196 889.54626632 C322.13376435 893.77323161 322.13246082 898.0001693 322.1273813 902.22713253 C322.12636443 903.75615381 322.12706528 905.28517732 322.12958724 906.81419685 C322.13274518 908.8730324 322.12926028 910.93187505 322.12534916 912.9907093 C322.12524753 914.70842228 322.12524753 914.70842228 322.12514383 916.46083653 C322 919 322 919 321 920 C215.07 920 109.14 920 0 920 C0 616.4 0 312.8 0 0 Z " fill="#ffffff" transform="translate(26,470)"/>
<path d="M0 0 C0.89283691 0.20898926 1.78567383 0.41797852 2.70556641 0.63330078 C28.21449721 6.81714364 52.66094631 18.31647893 73 35 C73.55494141 35.45487793 74.10988281 35.90975586 74.68164062 36.37841797 C112.95060189 67.94925619 137.02002077 110.80805296 144 160 C144.14356934 160.97972778 144.14356934 160.97972778 144.29003906 161.97924805 C150.54443724 210.15941033 136.49223361 260.58762012 107 299 C106.36964844 299.83660156 105.73929687 300.67320312 105.08984375 301.53515625 C89.800091 321.06715254 70.74329814 337.13331864 49 349 C48.05954834 349.51554443 48.05954834 349.51554443 47.10009766 350.04150391 C3.76262175 373.47519108 -48.34437291 378.55558649 -95.59423828 364.73876953 C-108.67434429 360.72208587 -120.96382972 355.48319042 -133 349 C-133.91023926 348.51877686 -133.91023926 348.51877686 -134.83886719 348.02783203 C-147.12990831 341.49759459 -157.62178702 333.40396582 -167.83203125 323.9765625 C-169.71434468 322.2604353 -171.63431566 320.64947912 -173.625 319.0625 C-174.40875 318.381875 -175.1925 317.70125 -176 317 C-176 316.34 -176 315.68 -176 315 C-176.99 314.67 -177.98 314.34 -179 314 C-208.50751372 286.95829523 -225.1190583 241.75849557 -229 203 C-229.11001206 200.34037504 -229.18600193 197.70616853 -229.203125 195.046875 C-229.21013931 194.31305099 -229.21715363 193.57922699 -229.22438049 192.82316589 C-229.24179554 190.4653808 -229.24823369 188.10784707 -229.25 185.75 C-229.25067474 184.94354034 -229.25134949 184.13708069 -229.25204468 183.30618286 C-229.23565404 170.97659397 -228.75340961 159.06547286 -226 147 C-225.73461426 145.81398193 -225.73461426 145.81398193 -225.46386719 144.60400391 C-213.96328713 94.57946008 -183.07204925 50.95428717 -139.67456055 23.5390625 C-117.59752408 10.0250768 -93.57497583 0.96692658 -68 -3 C-67.34201416 -3.1023999 -66.68402832 -3.2047998 -66.00610352 -3.31030273 C-44.46197297 -6.16728085 -21.06759582 -4.9833628 0 0 Z " fill="#ffffff" transform="translate(229,4)"/>
<path d="M0 0 C0.88075195 0.20367188 1.76150391 0.40734375 2.66894531 0.6171875 C31.58943264 7.51975685 57.71469063 21.44663627 80 41 C80.55655273 41.48355957 81.11310547 41.96711914 81.68652344 42.46533203 C114.73588779 71.33615575 135.70424922 110.8913396 143 154 C143.11714355 154.67353516 143.23428711 155.34707031 143.35498047 156.04101562 C151.21073308 203.24556773 138.97836232 253.56059548 111.8046875 292.72265625 C106.21776308 300.49028343 99.96888418 307.65441651 93.36474609 314.56787109 C92.05051533 315.94699053 90.75339339 317.34235213 89.45703125 318.73828125 C57.45162451 352.19627831 10.21819902 370.67786044 -35.62109375 372.22265625 C-70.04787767 372.95020197 -102.7057121 365.31778484 -133 349 C-133.91023926 348.51877686 -133.91023926 348.51877686 -134.83886719 348.02783203 C-150.35542356 339.78387642 -166.18308851 328.11706068 -178 315 C-178 314.34 -178 313.68 -178 313 C-178.99 312.67 -179.98 312.34 -181 312 C-192.36568641 300.03000306 -201.40488148 285.57001524 -209 271 C-209.34804687 270.33661621 -209.69609375 269.67323242 -210.0546875 268.98974609 C-221.5551779 246.75078088 -228.97139634 220.88612551 -229.23828125 195.75 C-229.2480751 194.98267548 -229.25786896 194.21535095 -229.26795959 193.42477417 C-229.80727409 140.16922919 -213.35029163 93.38907472 -177 54 C-176.29858887 53.23864746 -176.29858887 53.23864746 -175.58300781 52.46191406 C-164.27822739 40.34325455 -150.945641 30.8266903 -137 22 C-135.95070313 21.32324219 -134.90140625 20.64648438 -133.8203125 19.94921875 C-117.14670436 9.77791012 -98.04296092 3.07611351 -79 -1 C-78.31534668 -1.16081055 -77.63069336 -1.32162109 -76.92529297 -1.48730469 C-52.54425893 -7.1087934 -24.18983516 -5.73546037 0 0 Z " fill="#ffffff" transform="translate(2548,4)"/>
</svg>
